<?xml version="1.0" encoding="UTF-8"?>
<svg id="LOGO" xmlns="http://www.w3.org/2000/svg" version="1.1" viewBox="0 0 197.36 155.93">
  <defs>
    <style>
      .cls-1 {
        fill: #231f20;
        stroke-width: 0px;
      }
    </style>
  </defs>
  <g id="Tiana">
    <path id="T" class="cls-1" d="M1.51,24.21v3.92c0,5.04,4.09,9.13,9.13,9.13h1.3c1.21,0,4.89-1.09,6.03-1.49,5.8-2.08,22.7-7.07,31.66-8.75-5.08,17.24-24.7,89.12-29.1,112.94-.38,2.05-.63,4.11-.78,6.18l-.58,8.1h5.21c4.24,0,7.9-2.92,8.86-7.05,7.04-30.47,26.81-104.86,32.02-123.66,11.45-2.25,45.94-9.19,59.38-10.85.02-2.78.13-4.42.15-6.13.05-2.88-2.31-5.25-5.18-5.2-14.91.26-55.13,8.26-55.13,8.26l-6.95-.2c-1.22-.03-2.33.67-2.83,1.78l-.21.47S23.78,17.3,1.51,24.21Z"/>
    <path id="I" class="cls-1" d="M82.92,38.37h-3.68c-1.96,0-3.76,1.08-4.66,2.82-6.45,12.5-15.68,44.71-15.54,52.72-.09,11.05-.29,6.2,0,6.04h4.07c2.18,0,4.1-1.45,4.67-3.56,2.15-7.84,7.17-26.14,8.1-29.34,1.87-6.45,5.3-16.45,7.05-21.41,1.52-5.05,0-7.28,0-7.28Z"/>
    <path id="A" class="cls-1" d="M119.08,78.76c-.24-2.86-3.17-9-4.16-11.5.55-7.15.48-14.33.72-21.5.03-1.73-.87-4.4-2.15-6.64-1.37-2.4-3.97-3.83-6.73-3.83,0,0-6.01.53-11.32,5.4-6.39,5.86-11.84,15.45-14.05,27.55-3.78,20.73,2.86,30.53,9.56,30.51l3.24.02c2.88,0,5.09-1.26,6.62-3.4,2.97-4.16,5.73-10.55,6.37-14.11.59.81,1.1,2.46,1.49,4.06.57,2.36,2.68,4.03,5.11,4.06l4.89.05c.53-4.87.91-8.07.39-10.69M92.16,85.69c-3.73-6.58,1.37-34.93,12.86-41.74.06,9.17-7.03,34.1-12.86,41.74Z"/>
    <path id="NA" class="cls-1" d="M144.99,38.75c-2.2.45-6.88,2.44-8.55,4.56v-8s-3.97,0-3.97,0c-2.8,0-5.23,1.92-5.87,4.65-2.46,10.48-7.5,35.64-8.03,43.14-.65,9.26,1.77,14.7,1.77,14.7h4.43c3.42.02,6.25-2.62,6.48-6.03l.59-8.8c.32-3.81,1.96-10.36,2.44-12.29,1.07-4.53,5.26-13.92,10.28-19.03.73,2.65.78,17.35.63,25.29-.3,7.52-.4,17.25-.4,17.25l3.25.02c3.06.02,5.62-2.33,5.87-5.38l.3-3.69c.44,6.62,2.29,14.91,10.13,14.92s12.6-7.8,12.43-20c2.41,5.62,7.06,15.21,9.72,19.84,0,0,7.84.96,9.09-3.91.73-2.82-.43-5.48-.91-6.45-3.32-6.72-6.27-13.68-8.45-20.85-3.61-11.87-4.9-22.52-5.27-30.84h-4.19c-.36-.94-.93-1.77-2.18-2.89-2.86-2.56-7.49-1.71-10.73.23-3.13,1.87-4.4,4.77-5.3,6.81,0,0-1.73,4.04-2.21,8.9-.11-2.21-.44-5.12-.91-6.93-.97-3.7-5.61-6.19-10.44-5.2ZM170.53,51.47s-.96,23.22-5.3,33.26c-5.33-9.97.25-35.01,3.96-40.03,2,.51,1.34,6.77,1.34,6.77Z"/>
  </g>
  <g id="Di_Novo" data-name="Di Novo">
    <path id="D" class="cls-1" d="M51.86,136.77v-.88c.55-.14.95-.28,1.18-.41s.42-.3.56-.5.23-.5.29-.88.09-.99.09-1.81v-15.53c0-.84-.03-1.44-.09-1.82s-.16-.67-.3-.87-.32-.37-.55-.49-.62-.27-1.18-.42v-.88h7.86c2.26,0,4.11.25,5.56.74s2.66,1.23,3.65,2.2,1.74,2.17,2.23,3.62.74,3.16.74,5.16-.23,3.8-.69,5.34-1.13,2.83-2.02,3.87c-.77.91-1.71,1.66-2.82,2.24-.92.48-1.99.82-3.19,1.02s-2.81.31-4.81.31h-6.5ZM57.33,135.1c.48.05,1.18.07,2.12.07,1.01,0,1.9-.08,2.69-.25s1.51-.43,2.15-.79,1.23-.86,1.74-1.5.93-1.38,1.26-2.21.56-1.76.71-2.77.22-2.13.22-3.34c0-2.43-.35-4.42-1.05-5.99s-1.69-2.7-2.96-3.42-2.8-1.08-4.57-1.08c-.81,0-1.59.02-2.32.07v21.2Z"/>
    <path id="i" class="cls-1" d="M75.77,135.89c.47-.14.8-.27,1-.38s.36-.26.5-.45.25-.48.32-.88.12-1.01.12-1.85v-7.83c0-.77-.01-1.38-.04-1.85s-.11-.84-.25-1.12-.36-.49-.66-.63-.71-.25-1.25-.35v-.95l4.18-.16h1.09v12.83c0,1.03.05,1.74.14,2.14s.28.71.55.92.71.39,1.32.55v.88h-7.04v-.88ZM80.9,112.57v3.48h-3.3v-3.48h3.3Z"/>
    <path id="N" class="cls-1" d="M110.02,127.06c.43.72.79,1.35,1.09,1.88s.6,1.14.91,1.81h.23c-.06-.73-.11-2.18-.16-4.35-.05-2.17-.07-4.13-.07-5.88v-3.77c0-.83-.02-1.43-.07-1.81s-.13-.68-.26-.88-.3-.37-.52-.49-.61-.27-1.16-.42v-.88h6.46v.88c-.54.14-.92.28-1.14.39s-.4.28-.54.47-.24.48-.31.86-.11,1.01-.11,1.88v20.12h-2.24l-10-16.76c-.62-1.04-1.06-1.8-1.33-2.28s-.51-.95-.74-1.42h-.31c.08.92.14,2.59.18,5s.05,4.81.05,7.21v3.66c0,.8.03,1.39.08,1.76s.14.66.27.88.31.39.56.54.64.29,1.19.43v.88h-6.55v-.88c.74-.19,1.24-.4,1.49-.64s.42-.57.49-1,.12-1.09.12-1.97v-15.53c0-.83-.03-1.43-.09-1.8s-.16-.67-.3-.88-.32-.38-.55-.5-.62-.27-1.17-.42v-.88h5.62l8.87,14.79Z"/>
    <path id="o" class="cls-1" d="M126.07,137.05c-2.49,0-4.39-.73-5.7-2.2-1.31-1.47-1.97-3.63-1.97-6.51,0-1.97.34-3.64,1.03-5.01.69-1.36,1.63-2.38,2.83-3.04s2.56-1,4.09-1c2.56,0,4.5.74,5.82,2.23s1.97,3.63,1.97,6.42c0,1.99-.33,3.66-.99,5.03s-1.59,2.38-2.8,3.06-2.64,1.01-4.29,1.01ZM121.79,127.97c0,2.47.39,4.36,1.18,5.68s1.91,1.98,3.37,1.98c.8,0,1.48-.19,2.05-.58s1.02-.91,1.37-1.57.61-1.42.76-2.29.23-1.77.23-2.72c0-1.76-.19-3.22-.58-4.38-.39-1.16-.92-2.01-1.59-2.56s-1.44-.82-2.3-.82c-1.45,0-2.56.63-3.33,1.88s-1.16,3.05-1.16,5.37Z"/>
    <path id="v" class="cls-1" d="M145.16,119.61v.88c-.55.13-.94.26-1.17.38s-.4.28-.51.47-.17.45-.17.77.04.66.12,1.01.2.76.37,1.23l3.12,9.08,3.66-8.71c.24-.57.41-1.05.5-1.42s.14-.72.14-1.04c0-.5-.13-.89-.4-1.15s-.76-.47-1.48-.63v-.88h6.71v.88c-.47.1-.83.24-1.08.44s-.5.51-.75.93-.55,1.02-.9,1.79l-6.05,13.3h-2.12l-4.86-13.41c-.34-.92-.6-1.55-.8-1.89s-.41-.6-.65-.76-.57-.3-1.01-.39v-.88h7.32Z"/>
    <path id="o-2" data-name="o" class="cls-1" d="M167.48,137.05c-2.49,0-4.39-.73-5.7-2.2-1.31-1.47-1.97-3.63-1.97-6.51,0-1.97.34-3.64,1.03-5.01s1.63-2.38,2.83-3.04,2.56-1,4.09-1c2.56,0,4.5.74,5.82,2.23s1.97,3.63,1.97,6.42c0,1.99-.33,3.66-.99,5.03-.66,1.36-1.59,2.38-2.8,3.06s-2.64,1.01-4.29,1.01ZM163.2,127.97c0,2.47.39,4.36,1.18,5.68s1.91,1.98,3.37,1.98c.8,0,1.48-.19,2.05-.58s1.02-.91,1.37-1.57.61-1.42.76-2.29.23-1.77.23-2.72c0-1.76-.19-3.22-.58-4.38s-.92-2.01-1.59-2.56-1.44-.82-2.3-.82c-1.45,0-2.56.63-3.33,1.88s-1.16,3.05-1.16,5.37Z"/>
  </g>
</svg>